<?xml version="1.0" standalone="no"?>
<!DOCTYPE svg PUBLIC "-//W3C//DTD SVG 20010904//EN"
 "http://www.w3.org/TR/2001/REC-SVG-20010904/DTD/svg10.dtd">
<svg version="1.0" xmlns="http://www.w3.org/2000/svg"
 width="2977.000000pt" height="643.000000pt" viewBox="0 0 2977.000000 643.000000"
 preserveAspectRatio="xMidYMid meet">

<g transform="translate(0.000000,643.000000) scale(0.100000,-0.100000)"
fill="#000000" stroke="none">
<path d="M2424 5850 c-173 -56 -287 -194 -339 -407 -9 -40 -23 -78 -31 -84
-12 -10 -59 31 -268 241 -147 146 -259 250 -265 246 -15 -10 1226 -1865 1257
-1879 17 -8 41 -6 95 7 228 57 414 17 566 -121 235 -213 294 -571 151 -928
-24 -60 -31 -90 -27 -122 4 -35 98 -182 593 -925 323 -486 595 -893 604 -905
9 -12 22 -18 28 -14 8 4 -25 99 -104 295 -63 159 -116 305 -117 324 -3 48 25
62 125 62 262 0 432 135 498 394 25 100 25 172 0 270 -45 175 -156 299 -321
357 -60 21 -84 23 -357 27 -276 4 -293 5 -303 23 -11 22 -15 3 75 439 102 501
108 518 181 555 37 19 66 20 425 25 l385 5 67 33 c176 86 282 330 237 544 -30
142 -147 291 -265 337 -74 29 -274 42 -324 21 -21 -9 -71 -63 -149 -159 -215
-269 -232 -289 -248 -295 -20 -8 -60 17 -68 43 -3 11 15 114 40 228 93 414
163 755 171 831 24 223 -128 459 -343 533 -71 24 -190 25 -259 2 -146 -49
-261 -176 -318 -352 -13 -42 -48 -184 -76 -316 -98 -457 -98 -456 -121 -481
l-22 -24 -318 0 c-175 0 -325 3 -334 6 -31 12 -35 48 -14 145 95 443 107 567
69 685 -43 138 -143 254 -269 317 -55 27 -76 32 -155 34 -70 2 -105 -2 -152
-17z"/>
<path d="M930 5646 c0 -10 36 -105 81 -210 45 -105 94 -222 111 -261 16 -38
35 -83 43 -100 14 -33 53 -125 109 -256 20 -47 36 -91 36 -97 0 -23 -47 -40
-127 -45 -176 -11 -303 -117 -370 -308 -74 -213 19 -485 201 -588 83 -48 117
-52 389 -52 288 0 297 -2 297 -68 0 -21 -11 -89 -25 -152 -32 -143 -54 -246
-111 -527 -24 -122 -49 -232 -55 -245 -22 -49 -33 -50 -379 -53 -249 -2 -337
-6 -376 -17 -298 -85 -440 -463 -286 -762 84 -162 286 -292 400 -256 47 14 66
31 127 111 80 106 246 313 279 348 37 39 69 41 93 6 20 -31 20 -29 -92 -524
-91 -402 -95 -423 -95 -526 0 -173 49 -295 165 -412 90 -89 157 -122 265 -129
190 -13 365 89 446 261 38 81 64 176 123 461 24 110 49 233 58 272 8 40 24 84
35 98 l19 25 328 0 c241 0 330 -3 339 -12 21 -21 13 -100 -24 -254 -41 -174
-55 -356 -34 -452 17 -82 72 -191 125 -250 133 -148 340 -193 511 -112 117 56
219 175 249 292 8 28 23 60 34 71 17 18 23 19 50 7 17 -7 47 -31 68 -53 34
-38 347 -335 402 -382 l24 -20 -5 25 c-2 14 -285 447 -627 962 -487 731 -629
939 -650 946 -15 5 -48 6 -76 1 -71 -11 -232 -10 -285 2 -141 32 -301 166
-377 314 -104 201 -119 415 -47 646 14 46 28 107 31 135 l5 51 -343 514 c-354
531 -723 1089 -914 1382 -61 93 -118 178 -127 190 -16 20 -17 21 -18 3z"/>
<path d="M9549 4519 c-80 -10 -127 -29 -173 -70 -93 -81 -102 -303 -16 -397
16 -18 56 -45 87 -60 51 -24 73 -27 176 -30 98 -3 127 0 178 17 126 42 180
119 181 254 0 134 -36 204 -132 252 -40 20 -185 49 -225 44 -5 -1 -40 -5 -76
-10z"/>
<path d="M12709 4519 c-36 -5 -82 -15 -102 -24 -93 -39 -147 -130 -147 -249 0
-198 105 -286 340 -286 173 0 265 42 315 144 22 45 27 68 26 133 0 176 -77
259 -262 283 -46 5 -88 9 -94 9 -5 -1 -40 -5 -76 -10z"/>
<path d="M17250 3185 l0 -1285 325 0 325 0 0 1285 0 1285 -325 0 -325 0 0
-1285z"/>
<path d="M19876 4339 c-346 -45 -588 -215 -673 -473 -23 -71 -27 -97 -27 -221
-1 -86 4 -161 13 -195 23 -97 86 -214 153 -285 103 -110 194 -165 598 -358
207 -99 252 -140 252 -232 0 -136 -126 -194 -377 -174 -179 14 -391 70 -564
150 -46 22 -88 39 -93 39 -4 0 -7 -128 -6 -287 l3 -288 86 -37 c104 -44 242
-82 359 -99 124 -18 414 -15 534 5 411 69 660 298 707 651 29 222 -31 424
-167 560 -102 102 -171 143 -524 313 -113 55 -224 113 -248 131 -55 41 -82 86
-82 136 0 68 44 116 130 141 128 39 453 -22 651 -122 l47 -23 100 252 c115
291 120 251 -39 311 -267 99 -575 138 -833 105z"/>
<path d="M6860 3110 l0 -1211 523 4 c482 3 529 5 612 24 267 61 437 151 600
318 216 221 315 506 315 910 0 158 -12 269 -40 379 -108 422 -393 669 -880
762 -69 13 -182 17 -607 21 l-523 5 0 -1212z m969 669 c192 -32 322 -158 376
-365 23 -88 34 -264 25 -389 -32 -420 -210 -593 -612 -595 l-108 0 0 680 0
680 127 0 c69 0 156 -5 192 -11z"/>
<path d="M13811 3952 l-84 -198 -141 -100 -141 -100 -3 -131 -3 -132 113 -3
113 -3 5 -485 c5 -420 8 -493 23 -545 45 -154 119 -257 227 -314 82 -44 138
-59 267 -72 186 -19 390 9 568 79 l50 20 3 231 c1 127 -1 231 -6 231 -4 0 -52
-11 -107 -25 -185 -47 -294 -35 -349 38 -20 28 -21 40 -24 438 l-3 409 231 0
230 0 0 240 0 240 -230 0 -230 0 0 190 0 190 -213 0 -213 0 -83 -198z"/>
<path d="M10905 3780 c-175 -37 -296 -100 -392 -202 -99 -106 -145 -238 -145
-418 -1 -185 47 -315 157 -426 33 -34 80 -71 105 -84 42 -22 44 -23 25 -37
-173 -121 -214 -172 -222 -277 -5 -60 -3 -72 26 -130 31 -63 99 -136 149 -159
12 -6 22 -13 22 -16 0 -3 -28 -14 -63 -24 -192 -56 -313 -181 -336 -348 -32
-233 92 -417 343 -507 146 -53 244 -67 486 -66 227 0 355 14 515 56 300 79
511 259 569 486 38 146 27 319 -29 436 -33 70 -114 155 -180 189 -127 64 -164
70 -500 77 -369 8 -462 24 -484 83 -8 22 2 84 16 97 4 4 49 3 98 -2 60 -6 130
-6 211 2 402 36 628 197 690 490 21 99 14 235 -15 310 -11 30 -18 56 -13 58 4
2 59 22 122 46 l115 43 3 156 3 157 -328 0 c-181 1 -348 5 -373 11 -25 5 -144
11 -265 14 -193 4 -231 3 -310 -15z m355 -355 c60 -31 98 -110 107 -224 15
-201 -60 -331 -191 -331 -63 0 -106 20 -144 65 -39 48 -55 116 -55 231 0 111
22 182 69 229 51 51 146 64 214 30z m170 -1605 c94 -15 152 -47 166 -90 39
-119 -111 -215 -375 -240 -269 -25 -434 35 -448 163 -8 69 44 127 146 163 45
16 415 19 511 4z"/>
<path d="M15700 3779 c-181 -27 -454 -112 -466 -144 -8 -19 174 -420 188 -417
7 2 56 19 108 39 235 88 427 111 523 65 61 -31 97 -89 104 -172 l6 -60 -39 0
c-129 -1 -419 -22 -502 -35 -328 -56 -525 -206 -572 -439 -17 -85 -14 -262 6
-343 44 -180 158 -314 315 -372 98 -36 176 -44 318 -32 222 18 339 70 470 205
34 36 66 66 70 66 4 0 33 -54 66 -120 l59 -120 229 0 228 0 -3 683 c-4 675 -4
683 -27 757 -75 248 -243 391 -525 445 -112 22 -395 19 -556 -6z m460 -1146
c0 -129 -11 -165 -69 -223 -107 -107 -304 -120 -367 -25 -24 37 -34 103 -23
155 29 132 134 186 367 189 l92 1 0 -97z"/>
<path d="M21875 3790 c-359 -56 -609 -259 -714 -580 -68 -207 -69 -573 -1
-779 53 -160 144 -297 258 -386 277 -218 804 -244 1155 -57 l67 36 0 256 0
257 -107 -53 c-156 -77 -246 -99 -413 -99 -129 0 -137 1 -182 27 -102 61 -151
152 -170 320 -26 230 39 442 158 518 110 69 280 60 497 -26 49 -20 91 -34 93
-31 8 8 184 451 184 463 0 21 -185 89 -335 124 -65 15 -412 22 -490 10z"/>
<path d="M24040 3793 c-130 -27 -298 -150 -385 -281 -16 -24 -35 -42 -43 -40
-10 2 -33 55 -65 151 l-49 147 -239 0 -239 0 0 -935 0 -935 320 0 320 0 0 468
c0 271 4 494 10 532 28 173 134 271 312 288 46 5 133 5 193 1 61 -3 111 -6
112 -5 6 4 55 597 50 602 -9 9 -262 15 -297 7z"/>
<path d="M25245 3789 c-310 -45 -555 -245 -653 -534 -58 -172 -79 -456 -48
-644 36 -216 113 -371 250 -503 189 -184 494 -266 887 -238 224 16 331 39 472
103 l67 30 0 228 c0 152 -4 229 -10 229 -6 0 -27 -8 -48 -19 -59 -30 -218 -80
-311 -97 -50 -10 -143 -17 -221 -18 -160 -1 -244 20 -325 82 -56 42 -109 135
-120 210 l-7 42 581 0 581 0 0 168 c0 193 -12 316 -41 422 -79 292 -303 483
-629 536 -93 15 -329 17 -425 3z m378 -465 c67 -44 127 -153 127 -231 l0 -23
-279 0 -278 0 9 53 c16 90 74 178 140 213 72 38 215 32 281 -12z"/>
<path d="M9310 2835 l0 -935 325 0 325 0 0 935 0 935 -325 0 -325 0 0 -935z"/>
<path d="M12470 2835 l0 -935 325 0 325 0 0 935 0 935 -325 0 -325 0 0 -935z"/>
<path d="M26532 3748 c2 -13 116 -434 253 -935 l249 -913 341 0 341 0 58 243
c127 531 156 661 197 887 23 129 45 239 49 243 4 4 12 -32 19 -80 26 -189 75
-425 172 -833 55 -234 102 -433 105 -442 5 -17 30 -18 352 -18 l347 0 113 413
c62 226 177 647 256 935 l143 522 -312 0 -311 0 -93 -405 c-95 -410 -121 -553
-142 -783 -7 -70 -15 -131 -19 -135 -4 -5 -13 33 -19 84 -17 135 -59 355 -155
817 -47 227 -86 415 -86 418 0 2 -162 4 -360 4 -198 0 -360 -2 -360 -5 0 -3
-40 -182 -90 -398 -98 -429 -142 -654 -161 -820 -13 -108 -29 -127 -29 -34 0
55 -32 289 -60 444 -20 107 -157 762 -166 796 -5 16 -29 17 -321 17 l-315 0 4
-22z"/>
<path d="M2902 3414 c-175 -87 -205 -358 -48 -434 105 -50 224 -2 281 114 82
167 1 346 -155 346 -15 0 -49 -12 -78 -26z"/>
</g>
</svg>
